<svg viewBox="0 0 227.15 64.647" xmlns="http://www.w3.org/2000/svg"><g fill="#fff"><path d="m86.64 16.965h-1.973c-5.501 0-9.196 3.441-9.196 8.562v8.211c0 5.016 3.696 8.386 9.196 8.386h1.973c5.522 0 9.232-3.37 9.232-8.386v-8.211c0-5.201-3.624-8.562-9.232-8.562zm2.821 15.75c0 2.398-1.144 3.773-3.138 3.773h-1.233c-2.062 0-3.244-1.375-3.244-3.773v-6.062c0-2.539 1.213-4.054 3.244-4.054h1.233c1.994 0 3.138 1.478 3.138 4.054z"/><path d="m108.479 32.806 4.868 8.965h5.819v-24.454h-5.776v14.68l-2.881-5.611-4.797-9.069h-6.03v24.454h5.741v-14.789l.203.399c.825 1.618 1.732 3.342 2.854 5.425z"/><path d="m139.889 22.635v-5.318h-16.419v24.454h16.419v-5.318h-10.22v-4.444h8.494v-5.142h-8.494v-4.232z"/><path d="m164.28 41.771h6.948l-4.662-9.815.102-.044c2.572-1.107 3.988-3.425 3.988-6.527v-.634c0-4.586-2.943-7.434-7.681-7.434h-11.522v24.454h6.199v-8.775h2.857zm-6.628-19.242h4.09c1.615 0 2.504.864 2.504 2.434v.352c0 1.634-.936 2.61-2.504 2.61h-4.09v-5.395z"/><path d="m189.594 37.612 1.198 4.159h6.639l-8.594-24.454h-6.509l-8.804 24.454h6.674l1.198-4.159h8.197zm-6.034-7.359c.733-2.514 1.252-4.551 1.901-7.219l.11-.455.099.458c.529 2.445 1.032 4.469 1.796 7.219l.638 2.251h-5.221l.676-2.253z"/><path d="m200.44 17.317h6.199v24.454h-6.199z"/><path d="m210.942 17.317v24.454h16.208v-5.318h-10.009v-19.136z"/><path d="m26.915 30.112c-1.273 1.068-2.054 2.571-2.199 4.231s.363 3.275 1.431 4.548c.336.401 5.357 6.448 9.104 10.962l1.739 2.094c3.944 4.75 7.669 9.238 7.954 9.577 1.121 1.333 2.761 2.142 4.501 2.218l13.672.006c-3.535-4.238-26.839-32.172-27.423-32.867-1.069-1.275-2.572-2.057-4.23-2.202-.183-.017-.369-.025-.555-.025-1.475 0-2.857.504-3.994 1.458"/></g><path d="m13.255 64.647c3.436 0 6.231-2.796 6.231-6.231v-34.519c0-3.434-2.795-6.228-6.231-6.228-1.868 0-3.621.826-4.809 2.267l-8.159 9.723c-.185.218-.287.492-.287.775 0 .657.535 1.191 1.193 1.191h3.662c1.196 0 2.169.973 2.169 2.169v24.621c0 3.435 2.795 6.231 6.231 6.231" fill="#f58220"/><g fill="#fff"><path d="m40.609 0h-28.065c-3.497 0-6.342 2.845-6.342 6.342s2.845 6.342 6.342 6.342h25.358c3.973 0 7.206 3.233 7.206 7.206v11.593c0 3.497 2.845 6.342 6.342 6.342s6.342-2.845 6.342-6.342v-14.299c0-9.475-7.708-17.184-17.183-17.184"/><path d="m84.57 59.878 1.304 3.89h2.028l-5.738-16.196h-1.857l-5.761 16.196h2.028l1.328-3.89zm-5.027-4.878c.612-1.836 1.115-3.43 1.63-5.169l.051-.172.052.172c.614 2.021 1.074 3.5 1.607 5.076l1.095 3.239h-5.507z"/><path d="m93.593 64.001h.512c1.405 0 2.533-.593 3.097-1.626l.081-.149.177 1.542h1.296v-11.258h-1.709v7.143c0 1.62-1.07 2.709-2.662 2.709h-.792c-1.254 0-2.033-.824-2.033-2.15v-7.702h-1.709v7.702c0 2.267 1.504 3.789 3.743 3.789z"/><path d="m105.844 64.001h.442c3.632 0 4.395-1.947 4.395-3.58 0-2.094-1.162-3.026-4.144-3.324-1.949-.202-2.867-.42-2.867-1.544 0-1.117.742-1.638 2.336-1.638h.256c1.554 0 2.29.533 2.313 1.677h1.733c-.024-2.139-1.458-3.316-4.045-3.316h-.233c-2.571 0-4.046 1.203-4.046 3.3 0 2.081 1.023 2.825 4.377 3.184 1.626.178 2.633.533 2.633 1.754 0 .843-.466 1.847-2.686 1.847h-.466c-1.554 0-2.29-.533-2.313-1.677h-1.733c.024 2.139 1.458 3.316 4.045 3.316z"/><path d="m118.166 64.001h1.041v-1.639h-1.041c-1.092 0-2.103-.221-2.103-1.824v-6.505h2.725v-1.523h-2.725v-3.587h-1.709v3.587h-1.491v1.523h1.491v6.505c0 2.912 1.34 3.463 3.812 3.463z"/><path d="m126.155 53.915h1.041v-1.639h-.761c-1.405 0-2.533.593-3.097 1.626l-.081.149-.177-1.542h-1.296v11.258h1.709v-7.143c0-1.62 1.07-2.709 2.662-2.709z"/><path d="m132.49 64.001h.839c1.241 0 2.234-.528 2.795-1.487l.082-.14.152 1.395h1.295v-8.052c0-2.057-1.495-3.44-3.719-3.44h-.955c-2.205 0-3.693 1.358-3.719 3.386h1.709c.025-1.079.79-1.747 2.01-1.747h.955c1.24 0 2.01.69 2.01 1.801v1.451h-3.734c-2.072 0-3.463 1.373-3.463 3.417s1.504 3.417 3.743 3.417zm-.279-5.218h3.734v1.032c0 1.523-1.051 2.546-2.616 2.546h-.839c-1.24 0-2.01-.681-2.01-1.777 0-1.111.663-1.801 1.731-1.801z"/><path d="m143.927 64.001h.645v-1.639h-.389c-.952 0-1.358-.462-1.358-1.544v-13.246h-1.709v13.246c0 2.232.841 3.184 2.811 3.184z"/><path d="m147.241 48.13h1.709v2.058h-1.709z"/><path d="m147.241 52.509h1.709v11.258h-1.709z"/><path d="m155.899 64.001h.839c1.241 0 2.234-.528 2.795-1.487l.082-.14.152 1.395h1.295v-8.052c0-2.057-1.495-3.44-3.719-3.44h-.955c-2.205 0-3.693 1.358-3.719 3.386h1.709c.025-1.079.79-1.747 2.01-1.747h.955c1.24 0 2.01.69 2.01 1.801v1.451h-3.734c-2.072 0-3.463 1.373-3.463 3.417s1.504 3.417 3.743 3.417zm-.28-5.218h3.734v1.032c0 1.523-1.051 2.546-2.616 2.546h-.839c-1.24 0-2.01-.681-2.01-1.777 0-1.111.663-1.801 1.731-1.801z"/></g></svg>