<svg viewBox="0 0 274.165 81.198" xmlns="http://www.w3.org/2000/svg"><path d="m45.23 38.43c-2.95-3.518-8.193-3.976-11.712-1.025-3.518 2.951-3.976 8.194-1.025 11.711.792.945 22.466 27.06 23.258 28.005 1.56 1.856 3.759 2.861 6.004 2.959l18.233.009s-33.965-40.716-34.758-41.66z" fill="#231f20"/><path d="m17.004 21.865c-2.582 0-4.891 1.177-6.417 3.024l-10.09 12.027c-.311.363-.497.834-.497 1.348 0 1.147.932 2.077 2.079 2.077h4.532c1.147 0 2.08.933 2.08 2.08v30.464c0 4.592 3.721 8.312 8.313 8.312s8.313-3.72 8.313-8.312v-42.71c0-4.589-3.725-8.31-8.313-8.31z" fill="#f58220"/><g fill="#231f20"><path d="m72.715 39.557v-17.692c0-12.055-9.808-21.864-21.864-21.864h-34.727c-4.667-.001-8.449 3.783-8.449 8.449s3.783 8.451 8.449 8.451h31.376c4.592 0 8.313 3.723 8.313 8.312v14.343c.001 4.667 3.784 8.45 8.451 8.45s8.451-3.783 8.451-8.45z"/><path d="m106.81 45.618c2.529 0 3.75-1.788 3.75-4.535v-7.5c0-3.27-1.483-4.884-3.75-4.884h-1.527c-2.573 0-3.881 1.963-3.881 4.884v7.5c0 3.052 1.571 4.535 3.881 4.535zm-13.562-3.27v-10.16c0-6.453 4.579-10.726 11.512-10.726h2.442c6.932 0 11.555 4.186 11.555 10.726v10.16c0 6.323-4.622 10.509-11.555 10.509h-2.442c-6.933 0-11.512-4.187-11.512-10.509z"/><path d="m146.537 21.905v30.523h-7.413l-6.061-11.163c-1.221-2.268-2.398-4.491-3.532-6.715v17.878h-7.37v-30.523h7.674l5.974 11.293 3.314 6.454v-17.747h7.413z"/><path d="m158.267 28.751v4.971h10.508v6.628h-10.508v5.233h12.645v6.846h-20.581v-30.523h20.581v6.846h-12.645z"/><path d="m192.011 35.03h4.927c1.919 0 2.966-1.221 2.966-3.096v-.436c0-2.006-1.178-2.878-2.966-2.878h-4.927zm3.314 6.541h-3.314v10.857h-7.935v-30.523h14.39c5.886 0 9.637 3.619 9.637 9.331v.785c0 3.968-1.875 6.846-5.015 8.197l5.8 12.209h-8.895l-4.666-10.857z"/><path d="m228.077 40.698-.74-2.616c-.872-3.14-1.527-5.712-2.224-8.939-.785 3.227-1.439 5.799-2.355 8.939l-.785 2.616zm1.919 6.585h-9.941l-1.483 5.145h-8.547l10.989-30.523h8.241l10.727 30.523h-8.503z"/><path d="m250.051 21.905h-7.935v30.523h7.935z"/><path d="m274.165 45.583v6.846h-20.32v-30.523h7.936v23.677z"/><path d="m103.82 72.99-1.326-3.919c-.692-2.046-1.297-4.006-1.989-6.283-.692 2.335-1.325 4.323-2.017 6.398l-1.297 3.804h6.628zm.779 2.277h-8.157l-1.642 4.813h-2.651l7.175-20.173h2.392l7.147 20.173h-2.651l-1.614-4.813z"/><path d="m121.657 66.018v14.063h-1.729l-.202-1.758c-.691 1.268-2.074 2.046-3.89 2.046h-.634c-2.824 0-4.698-1.902-4.698-4.755v-9.596h2.249v9.596c0 1.672.98 2.594 2.449 2.594h.981c1.93 0 3.227-1.326 3.227-3.286v-8.905h2.248z"/><path d="m124.744 76.139h2.276c0 1.585 1.124 2.075 2.796 2.075h.576c2.335 0 3.257-.893 3.257-2.219 0-1.412-1.095-1.873-3.198-2.104-4.035-.432-5.476-1.326-5.476-4.006 0-2.767 2.018-4.15 5.072-4.15h.288c3.054 0 5.072 1.354 5.072 4.237h-2.277c0-1.585-1.124-2.075-2.795-2.075h-.317c-2.133 0-2.824.778-2.824 1.959 0 1.297.979 1.585 3.486 1.844 3.747.375 5.188 1.556 5.188 4.179 0 3.141-2.19 4.496-5.504 4.496h-.548c-3.054 0-5.072-1.354-5.072-4.236z"/><path d="m145.838 78.209v2.161h-1.355c-3.833 0-4.784-1.383-4.784-4.351v-7.983h-1.844v-2.017h1.844v-4.438h2.248v4.438h3.372v2.017h-3.372v7.983c0 1.758.951 2.19 2.536 2.19z"/><path d="m155.143 65.735v2.162h-1.354c-1.932 0-3.228 1.326-3.228 3.285v8.905h-2.247v-14.064h1.728l.202 1.758c.692-1.268 2.075-2.046 3.89-2.046z"/><path d="m165.286 75.13v-1.21h-4.552c-1.326 0-2.075.864-2.075 2.161 0 1.355.98 2.133 2.421 2.133h1.037c1.874 0 3.17-1.239 3.17-3.084zm2.249-5.072v10.029h-1.73l-.172-1.585c-.692 1.181-1.932 1.873-3.517 1.873h-1.037c-2.824 0-4.698-1.729-4.698-4.294s1.729-4.294 4.352-4.294h4.552v-1.729c0-1.383-.98-2.161-2.421-2.161h-1.181c-1.557 0-2.421.864-2.421 2.161h-2.249c0-2.594 1.874-4.323 4.67-4.323h1.181c2.796 0 4.67 1.729 4.67 4.323z"/><path d="m171.136 76.362v-16.455h2.249v16.455c0 1.469.634 1.845 1.614 1.845h.548v2.161h-.865c-2.824 0-3.545-1.614-3.545-4.006z"/><path d="m178.145 66.03h2.248v14.063h-2.248zm0-5.418h2.248v2.68h-2.248z"/><path d="m192.547 75.13v-1.21h-4.554c-1.325 0-2.075.864-2.075 2.161 0 1.355.979 2.133 2.421 2.133h1.038c1.873 0 3.17-1.239 3.17-3.084zm2.248-5.072v10.029h-1.729l-.173-1.585c-.692 1.181-1.931 1.873-3.515 1.873h-1.038c-2.824 0-4.698-1.729-4.698-4.294s1.729-4.294 4.351-4.294h4.554v-1.729c0-1.383-.98-2.161-2.422-2.161h-1.181c-1.557 0-2.422.864-2.422 2.161h-2.247c0-2.594 1.873-4.323 4.669-4.323h1.181c2.796 0 4.669 1.729 4.669 4.323z"/></g></svg>