<svg aria-hidden="true" xmlns="http://www.w3.org/2000/svg" width="120" height="57" fill="black" viewBox="0 0 120 57">
            <path fill-rule="evenodd" d="M36.097 5.352H28.24c-1.28 0-2.3-1.019-2.3-2.3 0-1.28 1.048-2.298 2.329-2.298h7.858a2.285 2.285 0 0 1 2.299 2.299c0 1.28-1.048 2.299-2.329 2.299Zm34.778 5.762 7.392 20.72c.116.35.204.758.145 1.078 0 1.63-1.338 2.823-2.968 2.823a2.926 2.926 0 0 1-2.823-2.067l-5.238-16.151-5.268 16.006c-.466 1.368-1.484 2.299-2.94 2.299h-.465c-1.484 0-2.474-.902-2.94-2.3l-5.267-16.005-4.074 12.077-3.201-7.247 4.016-11.233c.553-1.484 1.63-2.386 3.026-2.386h.611c1.397 0 2.445.873 2.969 2.386l5.21 15.104 5.209-15.104c.523-1.513 1.571-2.386 2.968-2.386h.611c1.397 0 2.503.902 3.027 2.386ZM1.465 42.748a.46.46 0 0 0-.465.466v4.307a.46.46 0 0 0 .466.466.46.46 0 0 0 .465-.466v-1.717h2.27a.398.398 0 0 0 .408-.407.398.398 0 0 0-.408-.408H1.902v-1.426h2.62a.398.398 0 0 0 .407-.407.398.398 0 0 0-.408-.408H1.466Zm7.102 3.172-.932-2.124-.93 2.124h1.862Zm-3.434 1.484 1.95-4.365c.116-.233.29-.378.552-.378h.059c.261 0 .436.145.552.378l1.95 4.365a.54.54 0 0 1 .059.204c0 .262-.175.437-.437.437a.437.437 0 0 1-.436-.32l-.437-.99H6.384l-.437 1.019c-.087.174-.232.29-.436.29a.429.429 0 0 1-.437-.436.54.54 0 0 1 .059-.203Zm9.4-2.939c0 .524-.408.873-1.077.873h-1.339v-1.775h1.339c.67 0 1.077.32 1.077.873v.03Zm-2.881-1.717a.46.46 0 0 0-.466.466v4.423a.46.46 0 0 0 .466.466.46.46 0 0 0 .465-.466v-1.426h1.164l1.28 1.63a.479.479 0 0 0 .437.233.429.429 0 0 0 .437-.437c0-.145-.058-.233-.146-.349l-1.018-1.28c.698-.233 1.193-.728 1.193-1.572v-.029c0-.466-.146-.844-.437-1.135-.32-.32-.843-.524-1.513-.524h-1.862Zm5.18.408a.46.46 0 0 1 .465-.466h.088c.203 0 .349.117.436.262l1.6 2.503 1.602-2.503a.464.464 0 0 1 .407-.233h.087a.46.46 0 0 1 .466.466v4.394a.46.46 0 0 1-.466.466.46.46 0 0 1-.465-.466v-3.172l-1.28 1.92c-.088.146-.205.234-.38.234-.174 0-.29-.088-.378-.233l-1.28-1.92v3.142c0 .262-.204.437-.466.437a.429.429 0 0 1-.436-.437v-4.394Zm6.519 3.9c0 .145.058.261.174.349.582.436 1.252.67 1.98.67 1.105 0 1.89-.583 1.89-1.572v-.03c0-.873-.581-1.28-1.687-1.542-1.019-.233-1.252-.407-1.252-.815v-.029c0-.32.292-.611.845-.611.436 0 .814.145 1.222.407.058.03.145.059.233.059a.448.448 0 0 0 .436-.437c0-.204-.087-.32-.204-.378-.465-.32-.989-.495-1.658-.495-1.048 0-1.805.611-1.805 1.513v.03c0 .96.64 1.309 1.746 1.57.99.234 1.194.437 1.194.816v.029c0 .407-.35.67-.932.67-.582 0-1.047-.204-1.484-.554-.058-.058-.145-.087-.262-.087a.448.448 0 0 0-.436.437Zm13.154-1.688c0-1.048-.757-1.892-1.775-1.892-1.048 0-1.776.844-1.776 1.863 0 1.018.757 1.862 1.776 1.862 1.047.03 1.775-.786 1.775-1.833Zm-4.511 0c0-1.485 1.135-2.736 2.765-2.736 1.63 0 2.735 1.222 2.735 2.707 0 1.484-1.135 2.735-2.764 2.735-1.63 0-2.736-1.222-2.736-2.706Zm7.276-2.62a.46.46 0 0 0-.466.466h-.03v4.307a.46.46 0 0 0 .466.466.46.46 0 0 0 .466-.466v-1.717h2.27a.398.398 0 0 0 .408-.407.398.398 0 0 0-.408-.408h-2.27v-1.426h2.62a.398.398 0 0 0 .407-.407.398.398 0 0 0-.408-.408H39.27ZM1 51.275a.46.46 0 0 1 .466-.465h.116c.233 0 .35.116.495.261l2.619 3.406v-3.23c0-.263.204-.437.437-.437.261 0 .465.203.465.436v4.424c0 .262-.204.465-.436.465h-.03c-.203 0-.349-.116-.494-.29L1.93 52.351v3.347c0 .262-.203.436-.465.436S1 55.932 1 55.7v-4.424Zm5.966 0v4.337c0 .261.204.465.466.436h3.114a.398.398 0 0 0 .407-.407.398.398 0 0 0-.407-.408H7.897v-1.426h2.27a.398.398 0 0 0 .408-.407.398.398 0 0 0-.408-.408h-2.27v-1.368h2.59a.398.398 0 0 0 .408-.407.398.398 0 0 0-.408-.407H7.432a.46.46 0 0 0-.466.465Zm4.802.146c-.03-.058-.03-.117-.03-.175a.46.46 0 0 1 .466-.465c.233 0 .408.145.466.349l1.222 3.608 1.194-3.608c.087-.204.232-.379.465-.379h.058c.233 0 .408.146.466.379l1.193 3.608 1.223-3.637a.473.473 0 0 1 .436-.32c.262 0 .466.203.466.436 0 .058-.03.146-.059.175l-1.542 4.365c-.087.233-.262.378-.495.378h-.087c-.233 0-.378-.145-.466-.378l-1.164-3.434-1.164 3.434c-.087.233-.262.378-.495.378h-.116c-.233 0-.378-.145-.495-.378l-1.542-4.336Zm11.699 3.841a.592.592 0 0 0-.175.437c0 .203.204.378.408.436h3.55a.398.398 0 0 0 .408-.407.398.398 0 0 0-.408-.408h-2.735l2.968-3.58a.699.699 0 0 0 .175-.436v-.029a.398.398 0 0 0-.408-.407h-3.463a.398.398 0 0 0-.407.407c0 .233.174.407.407.407h2.649l-2.969 3.58Zm5.355.35v-4.337a.46.46 0 0 1 .466-.465h3.055c.233 0 .408.174.408.407a.398.398 0 0 1-.408.407h-2.59v1.368h2.27c.233 0 .407.175.407.408a.398.398 0 0 1-.407.407h-2.27v1.426h2.648c.233 0 .408.175.408.408a.398.398 0 0 1-.408.407h-3.114c-.261.03-.465-.175-.465-.437Zm7.567-3.726.93 2.125h-1.862l.932-2.125Zm-.583-.756-1.95 4.365a.54.54 0 0 0-.058.204c0 .262.204.436.437.436.204 0 .35-.116.437-.29l.436-1.02h2.561l.437.99c.058.204.232.32.436.32.262 0 .437-.174.437-.436a.54.54 0 0 0-.059-.204l-1.95-4.365c-.116-.233-.29-.379-.552-.379h-.059c-.261 0-.436.146-.553.379Zm4.191.116a.46.46 0 0 1 .466-.465.46.46 0 0 1 .465.465v3.987h2.387c.233 0 .407.175.407.408a.398.398 0 0 1-.407.407h-2.852a.46.46 0 0 1-.466-.465v-4.337Zm7.188.64.932 2.125h-1.863l.931-2.125Zm-.582-.756-1.95 4.365a.54.54 0 0 0-.058.204c0 .262.204.436.437.436.204 0 .35-.116.437-.29l.436-1.02h2.561l.437.99c.058.204.232.32.436.32.262 0 .437-.174.437-.436a.54.54 0 0 0-.059-.204l-1.95-4.365c-.116-.233-.29-.379-.552-.379h-.059c-.261 0-.436.146-.553.379Zm4.191.145a.46.46 0 0 1 .466-.465h.087c.233 0 .35.116.495.261l2.62 3.406v-3.23c0-.263.203-.437.436-.437.261 0 .465.203.465.436v4.424a.46.46 0 0 1-.465.465h-.03c-.203 0-.349-.116-.494-.29l-2.707-3.493v3.347c0 .262-.203.436-.465.436s-.466-.203-.466-.436v-4.424h.058Zm9.75 2.212c0 1.019-.728 1.775-1.834 1.775h-1.048v-3.58h1.048c1.106 0 1.833.758 1.833 1.776v.03Zm-3.318-2.648a.46.46 0 0 0-.466.465v4.308a.46.46 0 0 0 .466.465h1.484c1.659 0 2.794-1.135 2.794-2.619 0-1.484-1.135-2.62-2.794-2.62h-1.484ZM11.389 22.493c2.91 0 4.599-1.746 4.599-3.987v-.087c0-2.59-1.805-3.987-4.715-3.987H6.791v8.061h4.598ZM1 12.103c0-1.63 1.281-2.91 2.911-2.91h7.858c6.286 0 10.098 3.725 10.098 9.11v.087c0 6.111-4.743 9.254-10.651 9.254H6.79v5.239c0 1.63-1.28 2.91-2.91 2.91-1.63 0-2.91-1.28-2.91-2.91v-20.78H1Zm78.112-.378v12.369c0 7.77 4.365 11.728 11.437 11.728 7.072 0 11.554-3.929 11.554-11.903V11.725c0-1.63-1.281-2.91-2.91-2.91-1.63 0-2.91 1.28-2.91 2.91v12.456c0 4.162-2.125 6.315-5.676 6.315-3.521 0-5.675-2.212-5.675-6.519V11.725c0-1.63-1.28-2.91-2.91-2.91-1.63 0-2.91 1.28-2.91 2.91Zm-43.363-.64 9.197 20.75c.174.407.29.785.261 1.222 0 1.542-1.193 2.794-2.735 2.794-1.368 0-2.27-.815-2.794-2.008l-1.048-2.474-1.542-3.638h-7.45c-.03 0 2.182-5.209 2.182-5.209h3.114v-.03l-2.793-6.664-3.638 8.702-2.416 5.733-1.6 3.725c-.495 1.135-1.485 1.805-2.678 1.805-1.513 0-2.677-1.194-2.677-2.707 0-.436.174-.844.349-1.251l9.196-20.75c.612-1.426 1.805-2.3 3.376-2.3h.35c1.571 0 2.706.874 3.346 2.3Zm71.293-.816h-1.806c-.928 0-.928-1.318 0-1.318h4.929c.928 0 .928 1.318 0 1.318h-1.708v5.272c0 .927-1.367.927-1.367 0v-5.272h-.048Zm6.394 5.223v-3.856l1.562 2.148c.341.439.781.439 1.171 0l1.709-2.197v3.856c0 .488.292.732.683.732.342 0 .634-.293.634-.732V9.586c0-.684-.829-.879-1.171-.44l-2.392 3.222-2.294-3.075c-.146-.195-.342-.39-.634-.39a.699.699 0 0 0-.635.732v5.857c0 .488.293.732.635.732.341 0 .732-.293.732-.732Z" clip-rule="evenodd"></path>
          </svg>
